<mxfile host="Electron" modified="2023-12-06T02:08:25.497Z" agent="Mozilla/5.0 (Macintosh; Intel Mac OS X 10_15_7) AppleWebKit/537.36 (KHTML, like Gecko) draw.io/22.1.2 Chrome/114.0.5735.289 Electron/25.9.4 Safari/537.36" etag="GvNlUavARbgPO7yxjfju" version="22.1.2" type="device">
  <diagram name="Page-1" id="2YBvvXClWsGukQMizWep">
    <mxGraphModel dx="1592" dy="829" grid="1" gridSize="10" guides="1" tooltips="1" connect="1" arrows="1" fold="1" page="1" pageScale="1" pageWidth="850" pageHeight="1100" math="0" shadow="0">
      <root>
        <mxCell id="0" />
        <mxCell id="1" parent="0" />
        <mxCell id="aM9ryv3xv72pqoxQDRHE-1" value="&amp;lt;&amp;lt;Actor&amp;gt;&amp;gt;&lt;br&gt;Administrator" style="shape=umlLifeline;perimeter=lifelinePerimeter;whiteSpace=wrap;html=1;container=0;dropTarget=0;collapsible=0;recursiveResize=0;outlineConnect=0;portConstraint=eastwest;newEdgeStyle={&quot;edgeStyle&quot;:&quot;elbowEdgeStyle&quot;,&quot;elbow&quot;:&quot;vertical&quot;,&quot;curved&quot;:0,&quot;rounded&quot;:0};" parent="1" vertex="1">
          <mxGeometry x="40" y="40" width="100" height="600" as="geometry" />
        </mxCell>
        <mxCell id="aM9ryv3xv72pqoxQDRHE-5" value="UI" style="shape=umlLifeline;perimeter=lifelinePerimeter;whiteSpace=wrap;html=1;container=0;dropTarget=0;collapsible=0;recursiveResize=0;outlineConnect=0;portConstraint=eastwest;newEdgeStyle={&quot;edgeStyle&quot;:&quot;elbowEdgeStyle&quot;,&quot;elbow&quot;:&quot;vertical&quot;,&quot;curved&quot;:0,&quot;rounded&quot;:0};" parent="1" vertex="1">
          <mxGeometry x="260" y="40" width="100" height="600" as="geometry" />
        </mxCell>
        <mxCell id="tzAvLBIY38gFi4zq9o81-4" value="" style="html=1;points=[];perimeter=orthogonalPerimeter;outlineConnect=0;targetShapes=umlLifeline;portConstraint=eastwest;newEdgeStyle={&quot;edgeStyle&quot;:&quot;elbowEdgeStyle&quot;,&quot;elbow&quot;:&quot;vertical&quot;,&quot;curved&quot;:0,&quot;rounded&quot;:0};" parent="aM9ryv3xv72pqoxQDRHE-5" vertex="1">
          <mxGeometry x="45" y="79" width="10" height="451" as="geometry" />
        </mxCell>
        <mxCell id="tzAvLBIY38gFi4zq9o81-1" value="SystemController" style="shape=umlLifeline;perimeter=lifelinePerimeter;whiteSpace=wrap;html=1;container=0;dropTarget=0;collapsible=0;recursiveResize=0;outlineConnect=0;portConstraint=eastwest;newEdgeStyle={&quot;edgeStyle&quot;:&quot;elbowEdgeStyle&quot;,&quot;elbow&quot;:&quot;vertical&quot;,&quot;curved&quot;:0,&quot;rounded&quot;:0};" parent="1" vertex="1">
          <mxGeometry x="450" y="40" width="100" height="600" as="geometry" />
        </mxCell>
        <mxCell id="tzAvLBIY38gFi4zq9o81-7" value="" style="html=1;points=[];perimeter=orthogonalPerimeter;outlineConnect=0;targetShapes=umlLifeline;portConstraint=eastwest;newEdgeStyle={&quot;edgeStyle&quot;:&quot;elbowEdgeStyle&quot;,&quot;elbow&quot;:&quot;vertical&quot;,&quot;curved&quot;:0,&quot;rounded&quot;:0};" parent="tzAvLBIY38gFi4zq9o81-1" vertex="1">
          <mxGeometry x="45" y="90" width="10" height="320" as="geometry" />
        </mxCell>
        <mxCell id="tzAvLBIY38gFi4zq9o81-2" value="CheckoutRecord" style="shape=umlLifeline;perimeter=lifelinePerimeter;whiteSpace=wrap;html=1;container=0;dropTarget=0;collapsible=0;recursiveResize=0;outlineConnect=0;portConstraint=eastwest;newEdgeStyle={&quot;edgeStyle&quot;:&quot;elbowEdgeStyle&quot;,&quot;elbow&quot;:&quot;vertical&quot;,&quot;curved&quot;:0,&quot;rounded&quot;:0};" parent="1" vertex="1">
          <mxGeometry x="650" y="40" width="100" height="600" as="geometry" />
        </mxCell>
        <mxCell id="P7pZnIr9eBPzd5SZrVft-8" value="" style="html=1;points=[];perimeter=orthogonalPerimeter;outlineConnect=0;targetShapes=umlLifeline;portConstraint=eastwest;newEdgeStyle={&quot;edgeStyle&quot;:&quot;elbowEdgeStyle&quot;,&quot;elbow&quot;:&quot;vertical&quot;,&quot;curved&quot;:0,&quot;rounded&quot;:0};" parent="tzAvLBIY38gFi4zq9o81-2" vertex="1">
          <mxGeometry x="45" y="112" width="10" height="270" as="geometry" />
        </mxCell>
        <mxCell id="FMM3vUtKrPc2eLG4mrar-3" value="" style="html=1;points=[];perimeter=orthogonalPerimeter;outlineConnect=0;targetShapes=umlLifeline;portConstraint=eastwest;newEdgeStyle={&quot;edgeStyle&quot;:&quot;elbowEdgeStyle&quot;,&quot;elbow&quot;:&quot;vertical&quot;,&quot;curved&quot;:0,&quot;rounded&quot;:0};" parent="tzAvLBIY38gFi4zq9o81-2" vertex="1">
          <mxGeometry x="50" y="223" width="10" height="117" as="geometry" />
        </mxCell>
        <mxCell id="FMM3vUtKrPc2eLG4mrar-4" value="" style="endArrow=classic;html=1;rounded=0;" parent="tzAvLBIY38gFi4zq9o81-2" target="FMM3vUtKrPc2eLG4mrar-3" edge="1">
          <mxGeometry width="50" height="50" relative="1" as="geometry">
            <mxPoint x="55" y="194" as="sourcePoint" />
            <mxPoint x="65" y="224" as="targetPoint" />
            <Array as="points">
              <mxPoint x="130" y="194" />
              <mxPoint x="130" y="224" />
            </Array>
          </mxGeometry>
        </mxCell>
        <mxCell id="tzAvLBIY38gFi4zq9o81-3" value="" style="endArrow=classic;html=1;rounded=0;" parent="1" target="tzAvLBIY38gFi4zq9o81-4" edge="1">
          <mxGeometry width="50" height="50" relative="1" as="geometry">
            <mxPoint x="89.5" y="120" as="sourcePoint" />
            <mxPoint x="260" y="120" as="targetPoint" />
          </mxGeometry>
        </mxCell>
        <mxCell id="tzAvLBIY38gFi4zq9o81-5" value="1 : OverdueBook" style="text;html=1;strokeColor=none;fillColor=none;align=center;verticalAlign=middle;whiteSpace=wrap;rounded=0;" parent="1" vertex="1">
          <mxGeometry x="140" y="90" width="120" height="30" as="geometry" />
        </mxCell>
        <mxCell id="P7pZnIr9eBPzd5SZrVft-6" value="DataAccess" style="shape=umlLifeline;perimeter=lifelinePerimeter;whiteSpace=wrap;html=1;container=0;dropTarget=0;collapsible=0;recursiveResize=0;outlineConnect=0;portConstraint=eastwest;newEdgeStyle={&quot;edgeStyle&quot;:&quot;elbowEdgeStyle&quot;,&quot;elbow&quot;:&quot;vertical&quot;,&quot;curved&quot;:0,&quot;rounded&quot;:0};" parent="1" vertex="1">
          <mxGeometry x="1270" y="40" width="100" height="600" as="geometry" />
        </mxCell>
        <mxCell id="P7pZnIr9eBPzd5SZrVft-13" value="" style="html=1;points=[];perimeter=orthogonalPerimeter;outlineConnect=0;targetShapes=umlLifeline;portConstraint=eastwest;newEdgeStyle={&quot;edgeStyle&quot;:&quot;elbowEdgeStyle&quot;,&quot;elbow&quot;:&quot;vertical&quot;,&quot;curved&quot;:0,&quot;rounded&quot;:0};" parent="P7pZnIr9eBPzd5SZrVft-6" vertex="1">
          <mxGeometry x="45" y="137" width="10" height="50" as="geometry" />
        </mxCell>
        <mxCell id="P7pZnIr9eBPzd5SZrVft-18" value="8 : showOverdueBook" style="text;html=1;strokeColor=none;fillColor=none;align=center;verticalAlign=middle;whiteSpace=wrap;rounded=0;" parent="1" vertex="1">
          <mxGeometry x="385" y="481" width="165" height="30" as="geometry" />
        </mxCell>
        <mxCell id="P7pZnIr9eBPzd5SZrVft-17" value="" style="html=1;points=[];perimeter=orthogonalPerimeter;outlineConnect=0;targetShapes=umlLifeline;portConstraint=eastwest;newEdgeStyle={&quot;edgeStyle&quot;:&quot;elbowEdgeStyle&quot;,&quot;elbow&quot;:&quot;vertical&quot;,&quot;curved&quot;:0,&quot;rounded&quot;:0};" parent="1" vertex="1">
          <mxGeometry x="310" y="511" width="10" height="26" as="geometry" />
        </mxCell>
        <mxCell id="P7pZnIr9eBPzd5SZrVft-15" value="" style="endArrow=classic;html=1;rounded=0;" parent="1" edge="1">
          <mxGeometry width="50" height="50" relative="1" as="geometry">
            <mxPoint x="315" y="481" as="sourcePoint" />
            <mxPoint x="320" y="511" as="targetPoint" />
            <Array as="points">
              <mxPoint x="395" y="481" />
              <mxPoint x="395" y="511" />
            </Array>
          </mxGeometry>
        </mxCell>
        <mxCell id="FMM3vUtKrPc2eLG4mrar-5" value="5 : * checkAvailableISBN" style="text;html=1;strokeColor=none;fillColor=none;align=center;verticalAlign=middle;whiteSpace=wrap;rounded=0;" parent="1" vertex="1">
          <mxGeometry x="780" y="234" width="140" height="30" as="geometry" />
        </mxCell>
        <mxCell id="FMM3vUtKrPc2eLG4mrar-7" value="4 : getOverdueRecord" style="text;html=1;strokeColor=none;fillColor=none;align=center;verticalAlign=middle;whiteSpace=wrap;rounded=0;" parent="1" vertex="1">
          <mxGeometry x="850" y="150" width="180" height="30" as="geometry" />
        </mxCell>
        <mxCell id="FMM3vUtKrPc2eLG4mrar-19" value="BookCopy" style="shape=umlLifeline;perimeter=lifelinePerimeter;whiteSpace=wrap;html=1;container=0;dropTarget=0;collapsible=0;recursiveResize=0;outlineConnect=0;portConstraint=eastwest;newEdgeStyle={&quot;edgeStyle&quot;:&quot;elbowEdgeStyle&quot;,&quot;elbow&quot;:&quot;vertical&quot;,&quot;curved&quot;:0,&quot;rounded&quot;:0};" parent="1" vertex="1">
          <mxGeometry x="850" y="40" width="100" height="600" as="geometry" />
        </mxCell>
        <mxCell id="0urdSRuTLvBA7Opk3IeU-6" value="" style="html=1;points=[];perimeter=orthogonalPerimeter;outlineConnect=0;targetShapes=umlLifeline;portConstraint=eastwest;newEdgeStyle={&quot;edgeStyle&quot;:&quot;elbowEdgeStyle&quot;,&quot;elbow&quot;:&quot;vertical&quot;,&quot;curved&quot;:0,&quot;rounded&quot;:0};" vertex="1" parent="FMM3vUtKrPc2eLG4mrar-19">
          <mxGeometry x="45" y="276" width="10" height="54" as="geometry" />
        </mxCell>
        <mxCell id="0urdSRuTLvBA7Opk3IeU-1" value="" style="endArrow=classic;html=1;rounded=0;entryX=-0.1;entryY=0.006;entryDx=0;entryDy=0;entryPerimeter=0;" edge="1" parent="1" source="tzAvLBIY38gFi4zq9o81-4" target="tzAvLBIY38gFi4zq9o81-7">
          <mxGeometry width="50" height="50" relative="1" as="geometry">
            <mxPoint x="320" y="140.00199999999995" as="sourcePoint" />
            <mxPoint x="499" y="140.00199999999995" as="targetPoint" />
          </mxGeometry>
        </mxCell>
        <mxCell id="0urdSRuTLvBA7Opk3IeU-2" value="2 : OverdueBook" style="text;html=1;strokeColor=none;fillColor=none;align=center;verticalAlign=middle;whiteSpace=wrap;rounded=0;" vertex="1" parent="1">
          <mxGeometry x="340" y="106" width="120" height="30" as="geometry" />
        </mxCell>
        <mxCell id="0urdSRuTLvBA7Opk3IeU-3" value="" style="endArrow=classic;html=1;rounded=0;entryX=-0.3;entryY=0;entryDx=0;entryDy=0;entryPerimeter=0;" edge="1" parent="1" source="tzAvLBIY38gFi4zq9o81-7" target="P7pZnIr9eBPzd5SZrVft-8">
          <mxGeometry width="50" height="50" relative="1" as="geometry">
            <mxPoint x="503" y="160" as="sourcePoint" />
            <mxPoint x="682" y="160" as="targetPoint" />
          </mxGeometry>
        </mxCell>
        <mxCell id="0urdSRuTLvBA7Opk3IeU-4" value="3 : OverdueBook" style="text;html=1;strokeColor=none;fillColor=none;align=center;verticalAlign=middle;whiteSpace=wrap;rounded=0;" vertex="1" parent="1">
          <mxGeometry x="540" y="130" width="120" height="30" as="geometry" />
        </mxCell>
        <mxCell id="0urdSRuTLvBA7Opk3IeU-5" value="" style="endArrow=classic;html=1;rounded=0;entryX=0.1;entryY=0;entryDx=0;entryDy=0;entryPerimeter=0;" edge="1" parent="1" source="P7pZnIr9eBPzd5SZrVft-8" target="P7pZnIr9eBPzd5SZrVft-13">
          <mxGeometry width="50" height="50" relative="1" as="geometry">
            <mxPoint x="733" y="170" as="sourcePoint" />
            <mxPoint x="1290" y="180" as="targetPoint" />
          </mxGeometry>
        </mxCell>
        <mxCell id="0urdSRuTLvBA7Opk3IeU-7" value="" style="endArrow=classic;html=1;rounded=0;" edge="1" parent="1">
          <mxGeometry width="50" height="50" relative="1" as="geometry">
            <mxPoint x="710" y="316" as="sourcePoint" />
            <mxPoint x="895" y="316" as="targetPoint" />
          </mxGeometry>
        </mxCell>
        <mxCell id="0urdSRuTLvBA7Opk3IeU-8" value="6 : checkAvailabelISBN" style="text;html=1;strokeColor=none;fillColor=none;align=center;verticalAlign=middle;whiteSpace=wrap;rounded=0;" vertex="1" parent="1">
          <mxGeometry x="740" y="290" width="130" height="30" as="geometry" />
        </mxCell>
        <mxCell id="0urdSRuTLvBA7Opk3IeU-9" value="BookCopy" style="shape=umlLifeline;perimeter=lifelinePerimeter;whiteSpace=wrap;html=1;container=0;dropTarget=0;collapsible=0;recursiveResize=0;outlineConnect=0;portConstraint=eastwest;newEdgeStyle={&quot;edgeStyle&quot;:&quot;elbowEdgeStyle&quot;,&quot;elbow&quot;:&quot;vertical&quot;,&quot;curved&quot;:0,&quot;rounded&quot;:0};" vertex="1" parent="1">
          <mxGeometry x="1060" y="40" width="100" height="600" as="geometry" />
        </mxCell>
        <mxCell id="0urdSRuTLvBA7Opk3IeU-11" value="" style="html=1;points=[];perimeter=orthogonalPerimeter;outlineConnect=0;targetShapes=umlLifeline;portConstraint=eastwest;newEdgeStyle={&quot;edgeStyle&quot;:&quot;elbowEdgeStyle&quot;,&quot;elbow&quot;:&quot;vertical&quot;,&quot;curved&quot;:0,&quot;rounded&quot;:0};" vertex="1" parent="0urdSRuTLvBA7Opk3IeU-9">
          <mxGeometry x="45" y="296" width="10" height="24" as="geometry" />
        </mxCell>
        <mxCell id="0urdSRuTLvBA7Opk3IeU-12" value="" style="endArrow=classic;html=1;rounded=0;" edge="1" parent="1">
          <mxGeometry width="50" height="50" relative="1" as="geometry">
            <mxPoint x="905" y="336.5" as="sourcePoint" />
            <mxPoint x="1105" y="336.5" as="targetPoint" />
          </mxGeometry>
        </mxCell>
        <mxCell id="0urdSRuTLvBA7Opk3IeU-13" value="7 : checkAvailabelISBN" style="text;html=1;strokeColor=none;fillColor=none;align=center;verticalAlign=middle;whiteSpace=wrap;rounded=0;" vertex="1" parent="1">
          <mxGeometry x="931" y="310" width="130" height="30" as="geometry" />
        </mxCell>
      </root>
    </mxGraphModel>
  </diagram>
</mxfile>
